<svg width="190" height="196" viewBox="0 0 190 196" fill="none" xmlns="http://www.w3.org/2000/svg">
<g filter="url(#filter0_d_135_714)">
<rect x="10" y="9" width="170" height="176" rx="10" fill="#5851EA"/>
</g>
<g clip-path="url(#clip0_135_714)">
<path d="M92.5 65.629L82.2144 71.3865L84.5112 59.8248L75.856 51.8215L87.5621 50.4332L92.5 39.729L97.4379 50.4332L109.144 51.8215L100.489 59.8248L102.786 71.3865L92.5 65.629Z" fill="white"/>
</g>
<path d="M69.3 94.5H73.875V111H70.95V97.3H69.3V94.5ZM82.474 111.2C81.5407 111.2 80.6407 111.033 79.774 110.7C78.924 110.35 78.249 109.925 77.749 109.425L79.274 107.125C79.5907 107.508 80.024 107.817 80.574 108.05C81.1407 108.283 81.6907 108.4 82.224 108.4C83.0074 108.4 83.6657 108.15 84.199 107.65C84.7324 107.15 84.999 106.475 84.999 105.625C84.999 104.708 84.7407 103.958 84.224 103.375C83.7074 102.792 82.974 102.5 82.024 102.5C81.474 102.5 80.949 102.575 80.449 102.725C79.9657 102.875 79.4407 103.117 78.874 103.45H78.849V94.5H86.874V97.3H81.349V100.2C81.799 100.1 82.2574 100.05 82.724 100.05C83.8574 100.05 84.8157 100.308 85.599 100.825C86.3824 101.325 86.974 101.992 87.374 102.825C87.7907 103.642 87.999 104.542 87.999 105.525C87.999 106.592 87.7574 107.558 87.274 108.425C86.7907 109.275 86.1324 109.95 85.299 110.45C84.4657 110.95 83.524 111.2 82.474 111.2ZM97.2361 111.05C95.9028 111.067 94.7111 110.75 93.6611 110.1C92.6278 109.45 91.8028 108.5 91.1861 107.25C90.5861 106 90.2861 104.475 90.2861 102.675C90.2861 100.708 90.5778 99.1083 91.1611 97.875C91.7445 96.6417 92.5528 95.7417 93.5861 95.175C94.6361 94.5917 95.8528 94.3083 97.2361 94.325C98.5528 94.3083 99.7361 94.625 100.786 95.275C101.836 95.925 102.661 96.875 103.261 98.125C103.861 99.3583 104.161 100.875 104.161 102.675C104.161 104.525 103.853 106.075 103.236 107.325C102.636 108.575 101.811 109.517 100.761 110.15C99.7278 110.767 98.5528 111.067 97.2361 111.05ZM97.2111 108.275C98.1278 108.275 98.8695 108.033 99.4361 107.55C100.019 107.067 100.444 106.4 100.711 105.55C100.994 104.683 101.136 103.7 101.136 102.6C101.136 101.533 100.994 100.592 100.711 99.775C100.444 98.9417 100.019 98.2917 99.4361 97.825C98.8528 97.3583 98.1111 97.125 97.2111 97.125C96.2945 97.125 95.5528 97.3667 94.9861 97.85C94.4195 98.3167 93.9945 98.9667 93.7111 99.8C93.4445 100.633 93.3111 101.592 93.3111 102.675C93.3111 103.742 93.4445 104.7 93.7111 105.55C93.9945 106.4 94.4195 107.067 94.9861 107.55C95.5528 108.033 96.2945 108.275 97.2111 108.275ZM112.861 111.05C111.528 111.067 110.336 110.75 109.286 110.1C108.253 109.45 107.428 108.5 106.811 107.25C106.211 106 105.911 104.475 105.911 102.675C105.911 100.708 106.203 99.1083 106.786 97.875C107.369 96.6417 108.178 95.7417 109.211 95.175C110.261 94.5917 111.478 94.3083 112.861 94.325C114.178 94.3083 115.361 94.625 116.411 95.275C117.461 95.925 118.286 96.875 118.886 98.125C119.486 99.3583 119.786 100.875 119.786 102.675C119.786 104.525 119.478 106.075 118.861 107.325C118.261 108.575 117.436 109.517 116.386 110.15C115.353 110.767 114.178 111.067 112.861 111.05ZM112.836 108.275C113.753 108.275 114.494 108.033 115.061 107.55C115.644 107.067 116.069 106.4 116.336 105.55C116.619 104.683 116.761 103.7 116.761 102.6C116.761 101.533 116.619 100.592 116.336 99.775C116.069 98.9417 115.644 98.2917 115.061 97.825C114.478 97.3583 113.736 97.125 112.836 97.125C111.919 97.125 111.178 97.3667 110.611 97.85C110.044 98.3167 109.619 98.9667 109.336 99.8C109.069 100.633 108.936 101.592 108.936 102.675C108.936 103.742 109.069 104.7 109.336 105.55C109.619 106.4 110.044 107.067 110.611 107.55C111.178 108.033 111.919 108.275 112.836 108.275Z" fill="white"/>
<path d="M24.88 155.16C24.1333 155.16 23.4133 155.027 22.72 154.76C22.04 154.48 21.5 154.14 21.1 153.74L22.32 151.9C22.5733 152.207 22.92 152.453 23.36 152.64C23.8133 152.827 24.2533 152.92 24.68 152.92C25.3067 152.92 25.8333 152.72 26.26 152.32C26.6867 151.92 26.9 151.38 26.9 150.7C26.9 149.967 26.6933 149.367 26.28 148.9C25.8667 148.433 25.28 148.2 24.52 148.2C24.08 148.2 23.66 148.26 23.26 148.38C22.8733 148.5 22.4533 148.693 22 148.96H21.98V141.8H28.4V144.04H23.98V146.36C24.34 146.28 24.7067 146.24 25.08 146.24C25.9867 146.24 26.7533 146.447 27.38 146.86C28.0067 147.26 28.48 147.793 28.8 148.46C29.1333 149.113 29.3 149.833 29.3 150.62C29.3 151.473 29.1067 152.247 28.72 152.94C28.3333 153.62 27.8067 154.16 27.14 154.56C26.4733 154.96 25.72 155.16 24.88 155.16ZM46.4759 143.4C45.9559 143.133 45.4026 142.907 44.8159 142.72C44.2426 142.52 43.6826 142.42 43.1359 142.42C42.4159 142.42 41.8426 142.58 41.4159 142.9C41.0026 143.207 40.7959 143.647 40.7959 144.22C40.7959 144.62 40.9426 144.973 41.2359 145.28C41.5293 145.573 41.9026 145.833 42.3559 146.06C42.8093 146.287 43.2893 146.493 43.7959 146.68C44.3826 146.893 44.9493 147.16 45.4959 147.48C46.0559 147.8 46.5159 148.24 46.8759 148.8C47.2359 149.347 47.4159 150.08 47.4159 151C47.4159 151.76 47.2226 152.46 46.8359 153.1C46.4493 153.727 45.8959 154.227 45.1759 154.6C44.4559 154.973 43.5826 155.16 42.5559 155.16C41.6493 155.16 40.7693 155.02 39.9159 154.74C39.0759 154.447 38.3293 154.073 37.6759 153.62L38.7159 151.8C39.1959 152.16 39.7693 152.467 40.4359 152.72C41.1159 152.973 41.7493 153.1 42.3359 153.1C42.7493 153.1 43.1559 153.033 43.5559 152.9C43.9693 152.767 44.3093 152.547 44.5759 152.24C44.8559 151.933 44.9959 151.527 44.9959 151.02C44.9959 150.607 44.8759 150.253 44.6359 149.96C44.3959 149.667 44.0826 149.413 43.6959 149.2C43.3226 148.973 42.9093 148.773 42.4559 148.6C42.0026 148.427 41.5359 148.233 41.0559 148.02C40.5893 147.807 40.1559 147.547 39.7559 147.24C39.3559 146.92 39.0293 146.533 38.7759 146.08C38.5226 145.627 38.3959 145.067 38.3959 144.4C38.3959 143.6 38.5826 142.907 38.9559 142.32C39.3293 141.72 39.8426 141.253 40.4959 140.92C41.1626 140.587 41.9293 140.4 42.7959 140.36C43.8226 140.36 44.6959 140.487 45.4159 140.74C46.1493 140.98 46.7959 141.273 47.3559 141.62L46.4759 143.4ZM49.378 140.44H59.118V142.68H55.358V155H53.038V142.68H49.378V140.44ZM59.4058 155L65.8458 139.84H65.9858L72.4258 155H69.7458L68.4058 151.58H63.1058L61.7058 155H59.4058ZM63.9258 149.58H67.6258L65.8058 145L63.9258 149.58ZM79.0102 140.44C80.0902 140.44 81.0302 140.627 81.8302 141C82.6435 141.36 83.2702 141.893 83.7102 142.6C84.1635 143.293 84.3902 144.133 84.3902 145.12C84.3902 145.947 84.2102 146.753 83.8502 147.54C83.4902 148.327 82.8835 148.94 82.0302 149.38L85.5702 155H82.8702L79.5902 149.94C79.5102 149.94 79.4302 149.94 79.3502 149.94H77.2502V155H74.9102V140.44H79.0102ZM79.3302 147.7C80.0235 147.7 80.5635 147.567 80.9502 147.3C81.3368 147.02 81.6035 146.687 81.7502 146.3C81.9102 145.9 81.9902 145.533 81.9902 145.2C81.9902 144.88 81.9168 144.527 81.7702 144.14C81.6235 143.74 81.3635 143.4 80.9902 143.12C80.6168 142.827 80.0902 142.68 79.4102 142.68H77.2502V147.7H79.3302ZM98.8148 140.44C99.8948 140.44 100.835 140.627 101.635 141C102.448 141.36 103.075 141.893 103.515 142.6C103.968 143.293 104.195 144.133 104.195 145.12C104.195 145.947 104.015 146.753 103.655 147.54C103.295 148.327 102.688 148.94 101.835 149.38L105.375 155H102.675L99.3948 149.94C99.3148 149.94 99.2348 149.94 99.1548 149.94H97.0548V155H94.7148V140.44H98.8148ZM99.1348 147.7C99.8282 147.7 100.368 147.567 100.755 147.3C101.142 147.02 101.408 146.687 101.555 146.3C101.715 145.9 101.795 145.533 101.795 145.2C101.795 144.88 101.722 144.527 101.575 144.14C101.428 143.74 101.168 143.4 100.795 143.12C100.422 142.827 99.8948 142.68 99.2148 142.68H97.0548V147.7H99.1348ZM106.593 155L113.033 139.84H113.173L119.613 155H116.933L115.593 151.58H110.293L108.893 155H106.593ZM111.113 149.58H114.813L112.993 145L111.113 149.58ZM119.905 140.44H129.645V142.68H125.885V155H123.565V142.68H119.905V140.44ZM132.605 140.44H134.945V155H132.605V140.44ZM151.753 155.52L141.253 145.34L141.313 155H138.953V139.94H139.073L149.533 150.26L149.493 140.44H151.813V155.52H151.753ZM167.408 153.66C167.155 153.9 166.755 154.133 166.208 154.36C165.661 154.587 165.061 154.78 164.408 154.94C163.768 155.087 163.161 155.16 162.588 155.16C161.028 155.16 159.675 154.853 158.528 154.24C157.381 153.613 156.495 152.767 155.868 151.7C155.241 150.633 154.928 149.42 154.928 148.06C154.928 146.793 155.128 145.673 155.528 144.7C155.928 143.727 156.475 142.913 157.168 142.26C157.861 141.607 158.655 141.113 159.548 140.78C160.455 140.447 161.408 140.28 162.408 140.28C163.288 140.28 164.101 140.38 164.848 140.58C165.595 140.78 166.241 141.033 166.788 141.34L166.028 143.5C165.761 143.353 165.428 143.213 165.028 143.08C164.641 142.933 164.241 142.82 163.828 142.74C163.415 142.66 163.041 142.62 162.708 142.62C161.055 142.62 159.741 143.08 158.768 144C157.808 144.92 157.328 146.207 157.328 147.86C157.328 148.86 157.555 149.733 158.008 150.48C158.461 151.227 159.081 151.807 159.868 152.22C160.668 152.633 161.595 152.84 162.648 152.84C163.101 152.84 163.541 152.8 163.968 152.72C164.395 152.64 164.761 152.513 165.068 152.34V149.92H162.328V147.68H167.408V153.66Z" fill="white"/>
<defs>
<filter id="filter0_d_135_714" x="0" y="0" width="190" height="196" filterUnits="userSpaceOnUse" color-interpolation-filters="sRGB">
<feFlood flood-opacity="0" result="BackgroundImageFix"/>
<feColorMatrix in="SourceAlpha" type="matrix" values="0 0 0 0 0 0 0 0 0 0 0 0 0 0 0 0 0 0 127 0" result="hardAlpha"/>
<feOffset dy="1"/>
<feGaussianBlur stdDeviation="5"/>
<feColorMatrix type="matrix" values="0 0 0 0 0 0 0 0 0 0 0 0 0 0 0 0 0 0 0.1 0"/>
<feBlend mode="normal" in2="BackgroundImageFix" result="effect1_dropShadow_135_714"/>
<feBlend mode="normal" in="SourceGraphic" in2="effect1_dropShadow_135_714" result="shape"/>
</filter>
<clipPath id="clip0_135_714">
<rect width="35" height="35" fill="white" transform="translate(75 39)"/>
</clipPath>
</defs>
</svg>
