<svg width="190" height="196" viewBox="0 0 190 196" fill="none" xmlns="http://www.w3.org/2000/svg">
<g filter="url(#filter0_d_135_702)">
<rect x="10" y="9" width="170" height="176" rx="10" fill="#5851EA"/>
</g>
<g clip-path="url(#clip0_135_702)">
<path d="M82.8334 66.7083H106.167V56.5H109.083V68.1667C109.083 68.5534 108.93 68.9244 108.656 69.1979C108.383 69.4714 108.012 69.625 107.625 69.625H81.375C80.9882 69.625 80.6173 69.4714 80.3438 69.1979C80.0703 68.9244 79.9167 68.5534 79.9167 68.1667V56.5H82.8334V66.7083ZM97.4167 52.125H104.708L94.5 62.3333L84.2917 52.125H91.5834V43.375H97.4167V52.125Z" fill="white"/>
</g>
<path d="M67.1 111.2C66.1667 111.2 65.2667 111.033 64.4 110.7C63.55 110.35 62.875 109.925 62.375 109.425L63.9 107.125C64.2167 107.508 64.65 107.817 65.2 108.05C65.7667 108.283 66.3167 108.4 66.85 108.4C67.6333 108.4 68.2917 108.15 68.825 107.65C69.3583 107.15 69.625 106.475 69.625 105.625C69.625 104.708 69.3667 103.958 68.85 103.375C68.3333 102.792 67.6 102.5 66.65 102.5C66.1 102.5 65.575 102.575 65.075 102.725C64.5917 102.875 64.0667 103.117 63.5 103.45H63.475V94.5H71.5V97.3H65.975V100.2C66.425 100.1 66.8833 100.05 67.35 100.05C68.4833 100.05 69.4417 100.308 70.225 100.825C71.0083 101.325 71.6 101.992 72 102.825C72.4167 103.642 72.625 104.542 72.625 105.525C72.625 106.592 72.3833 107.558 71.9 108.425C71.4167 109.275 70.7583 109.95 69.925 110.45C69.0917 110.95 68.15 111.2 67.1 111.2ZM79.8121 105.7C78.9954 105.7 78.2038 105.475 77.4371 105.025C76.6871 104.575 76.0704 103.95 75.5871 103.15C75.1204 102.35 74.8871 101.442 74.8871 100.425C74.8871 99.175 75.1704 98.1083 75.7371 97.225C76.3038 96.3417 77.0371 95.6667 77.9371 95.2C78.8371 94.7167 79.7954 94.475 80.8121 94.475C81.9454 94.475 82.9704 94.7333 83.8871 95.25C84.8204 95.75 85.5538 96.45 86.0871 97.35C86.6371 98.25 86.9121 99.275 86.9121 100.425C86.9121 101.758 86.6704 102.967 86.1871 104.05C85.7038 105.117 85.0621 106.083 84.2621 106.95C83.4621 107.817 82.5788 108.617 81.6121 109.35C80.6454 110.067 79.6788 110.742 78.7121 111.375L76.7621 109.25C78.1121 108.617 79.2871 107.925 80.2871 107.175C81.3038 106.425 82.0954 105.675 82.6621 104.925C82.2954 105.175 81.8788 105.367 81.4121 105.5C80.9454 105.633 80.4121 105.7 79.8121 105.7ZM80.9121 103.25C81.7788 103.25 82.4954 102.992 83.0621 102.475C83.6288 101.942 83.9121 101.292 83.9121 100.525V100.025C83.9121 99.4917 83.7704 99.0083 83.4871 98.575C83.2204 98.125 82.8621 97.7667 82.4121 97.5C81.9788 97.2167 81.4788 97.075 80.9121 97.075C80.0788 97.075 79.3704 97.3583 78.7871 97.925C78.2038 98.475 77.9121 99.2333 77.9121 100.2C77.9121 101.15 78.2038 101.9 78.7871 102.45C79.3704 102.983 80.0788 103.25 80.9121 103.25ZM88.1375 105.725C88.1375 104.892 88.2958 104.167 88.6125 103.55C88.9292 102.933 89.3208 102.425 89.7875 102.025C90.2708 101.608 90.7458 101.283 91.2125 101.05C90.7792 100.7 90.4125 100.308 90.1125 99.875C89.8125 99.425 89.6625 98.8333 89.6625 98.1C89.6625 97.3667 89.8625 96.7167 90.2625 96.15C90.6625 95.5667 91.1958 95.1167 91.8625 94.8C92.5458 94.4667 93.3042 94.3 94.1375 94.3C94.9708 94.3 95.7292 94.4667 96.4125 94.8C97.1125 95.1167 97.6625 95.55 98.0625 96.1C98.4625 96.65 98.6625 97.275 98.6625 97.975C98.6625 98.775 98.5042 99.4 98.1875 99.85C97.8875 100.3 97.5125 100.7 97.0625 101.05C97.5292 101.3 97.9958 101.633 98.4625 102.05C98.9458 102.45 99.3458 102.958 99.6625 103.575C99.9958 104.192 100.163 104.908 100.163 105.725C100.163 106.692 99.8958 107.592 99.3625 108.425C98.8292 109.258 98.1042 109.933 97.1875 110.45C96.2875 110.95 95.2625 111.2 94.1125 111.2C92.9625 111.2 91.9375 110.95 91.0375 110.45C90.1375 109.933 89.4292 109.258 88.9125 108.425C88.3958 107.592 88.1375 106.692 88.1375 105.725ZM92.4875 98.45C92.4875 98.9 92.6625 99.2833 93.0125 99.6C93.3625 99.9167 93.7625 100.075 94.2125 100.075C94.6458 100.075 95.0292 99.9167 95.3625 99.6C95.7125 99.2833 95.8875 98.9 95.8875 98.45C95.8875 97.9667 95.7125 97.5583 95.3625 97.225C95.0292 96.8917 94.6458 96.725 94.2125 96.725C93.7625 96.725 93.3625 96.8917 93.0125 97.225C92.6625 97.5583 92.4875 97.9667 92.4875 98.45ZM91.1125 105.625C91.1125 106.192 91.2458 106.717 91.5125 107.2C91.7792 107.667 92.1375 108.042 92.5875 108.325C93.0542 108.608 93.5625 108.75 94.1125 108.75C94.6792 108.75 95.1958 108.608 95.6625 108.325C96.1458 108.042 96.5292 107.667 96.8125 107.2C97.1125 106.717 97.2625 106.192 97.2625 105.625C97.2625 105.058 97.1208 104.542 96.8375 104.075C96.5708 103.608 96.2125 103.233 95.7625 102.95C95.3125 102.667 94.8042 102.517 94.2375 102.5C93.6875 102.483 93.1708 102.617 92.6875 102.9C92.2208 103.167 91.8375 103.542 91.5375 104.025C91.2542 104.492 91.1125 105.025 91.1125 105.625ZM107.721 111.2C106.571 111.2 105.529 110.933 104.596 110.4C103.679 109.85 102.946 109.067 102.396 108.05C101.863 107.017 101.596 105.783 101.596 104.35C101.596 103.3 101.796 102.3 102.196 101.35C102.613 100.4 103.163 99.5 103.846 98.65C104.546 97.7833 105.338 96.9833 106.221 96.25C107.121 95.5167 108.054 94.8417 109.021 94.225L110.971 96.35C109.488 97.0167 108.279 97.8167 107.346 98.75C106.429 99.6833 105.763 100.608 105.346 101.525C105.763 101.125 106.238 100.825 106.771 100.625C107.321 100.408 107.963 100.3 108.696 100.3C109.529 100.3 110.321 100.533 111.071 101C111.821 101.45 112.429 102.075 112.896 102.875C113.379 103.658 113.621 104.567 113.621 105.6C113.621 106.767 113.338 107.767 112.771 108.6C112.204 109.433 111.471 110.075 110.571 110.525C109.688 110.975 108.738 111.2 107.721 111.2ZM107.596 108.6C108.446 108.6 109.154 108.333 109.721 107.8C110.304 107.267 110.596 106.533 110.596 105.6C110.596 104.717 110.304 104.025 109.721 103.525C109.138 103.008 108.429 102.75 107.596 102.75C106.763 102.75 106.054 103 105.471 103.5C104.888 103.983 104.596 104.567 104.596 105.25V105.75C104.596 106.25 104.729 106.717 104.996 107.15C105.263 107.583 105.621 107.933 106.071 108.2C106.521 108.467 107.029 108.6 107.596 108.6ZM120.616 111.2C119.682 111.2 118.782 111.033 117.916 110.7C117.066 110.35 116.391 109.925 115.891 109.425L117.416 107.125C117.732 107.508 118.166 107.817 118.716 108.05C119.282 108.283 119.832 108.4 120.366 108.4C121.149 108.4 121.807 108.15 122.341 107.65C122.874 107.15 123.141 106.475 123.141 105.625C123.141 104.708 122.882 103.958 122.366 103.375C121.849 102.792 121.116 102.5 120.166 102.5C119.616 102.5 119.091 102.575 118.591 102.725C118.107 102.875 117.582 103.117 117.016 103.45H116.991V94.5H125.016V97.3H119.491V100.2C119.941 100.1 120.399 100.05 120.866 100.05C121.999 100.05 122.957 100.308 123.741 100.825C124.524 101.325 125.116 101.992 125.516 102.825C125.932 103.642 126.141 104.542 126.141 105.525C126.141 106.592 125.899 107.558 125.416 108.425C124.932 109.275 124.274 109.95 123.441 110.45C122.607 110.95 121.666 111.2 120.616 111.2Z" fill="white"/>
<path d="M33 155V140.44H37.14C38.5933 140.44 39.8267 140.66 40.84 141.1C41.8533 141.527 42.6733 142.107 43.3 142.84C43.9267 143.56 44.38 144.367 44.66 145.26C44.9533 146.14 45.1 147.027 45.1 147.92C45.1 149.013 44.9067 150 44.52 150.88C44.1333 151.747 43.6 152.487 42.92 153.1C42.2533 153.713 41.48 154.187 40.6 154.52C39.7333 154.84 38.8133 155 37.84 155H33ZM35.34 152.76H37.42C38.4467 152.76 39.3533 152.567 40.14 152.18C40.94 151.793 41.5667 151.233 42.02 150.5C42.4733 149.753 42.7 148.84 42.7 147.76C42.7 146.853 42.5467 146.08 42.24 145.44C41.9467 144.787 41.5533 144.26 41.06 143.86C40.58 143.447 40.0533 143.147 39.48 142.96C38.9067 142.76 38.34 142.66 37.78 142.66H35.34V152.76ZM47.3148 147.74C47.3148 146.727 47.5082 145.773 47.8948 144.88C48.2815 143.973 48.8148 143.18 49.4948 142.5C50.1748 141.807 50.9615 141.267 51.8548 140.88C52.7615 140.48 53.7282 140.28 54.7548 140.28C55.7682 140.28 56.7215 140.48 57.6148 140.88C58.5215 141.267 59.3148 141.807 59.9948 142.5C60.6882 143.18 61.2282 143.973 61.6148 144.88C62.0148 145.773 62.2148 146.727 62.2148 147.74C62.2148 148.767 62.0148 149.727 61.6148 150.62C61.2282 151.513 60.6882 152.3 59.9948 152.98C59.3148 153.66 58.5215 154.193 57.6148 154.58C56.7215 154.967 55.7682 155.16 54.7548 155.16C53.7282 155.16 52.7615 154.973 51.8548 154.6C50.9615 154.213 50.1748 153.687 49.4948 153.02C48.8148 152.34 48.2815 151.553 47.8948 150.66C47.5082 149.753 47.3148 148.78 47.3148 147.74ZM49.7148 147.74C49.7148 148.7 49.9415 149.573 50.3948 150.36C50.8482 151.133 51.4548 151.753 52.2148 152.22C52.9882 152.687 53.8548 152.92 54.8148 152.92C55.7482 152.92 56.5882 152.687 57.3348 152.22C58.0948 151.753 58.6948 151.133 59.1348 150.36C59.5882 149.573 59.8148 148.7 59.8148 147.74C59.8148 146.767 59.5882 145.887 59.1348 145.1C58.6815 144.313 58.0748 143.687 57.3148 143.22C56.5548 142.753 55.7015 142.52 54.7548 142.52C53.8082 142.52 52.9548 142.753 52.1948 143.22C51.4348 143.687 50.8282 144.32 50.3748 145.12C49.9348 145.907 49.7148 146.78 49.7148 147.74ZM62.9509 140.52H65.6709L69.0709 150.24L71.4709 144.06L70.0909 140.52H72.3909L76.1309 149.96L79.2509 140.52H81.7509L76.0709 155.64L72.6309 146.98L68.7709 155.68L62.9509 140.52ZM97.2844 155.52L86.7844 145.34L86.8444 155H84.4844V139.94H84.6044L95.0644 150.26L95.0244 140.44H97.3444V155.52H97.2844ZM101.359 140.44H103.699V152.76H110.879V155H101.359V140.44ZM112.745 147.74C112.745 146.727 112.938 145.773 113.325 144.88C113.711 143.973 114.245 143.18 114.925 142.5C115.605 141.807 116.391 141.267 117.285 140.88C118.191 140.48 119.158 140.28 120.185 140.28C121.198 140.28 122.151 140.48 123.045 140.88C123.951 141.267 124.745 141.807 125.425 142.5C126.118 143.18 126.658 143.973 127.045 144.88C127.445 145.773 127.645 146.727 127.645 147.74C127.645 148.767 127.445 149.727 127.045 150.62C126.658 151.513 126.118 152.3 125.425 152.98C124.745 153.66 123.951 154.193 123.045 154.58C122.151 154.967 121.198 155.16 120.185 155.16C119.158 155.16 118.191 154.973 117.285 154.6C116.391 154.213 115.605 153.687 114.925 153.02C114.245 152.34 113.711 151.553 113.325 150.66C112.938 149.753 112.745 148.78 112.745 147.74ZM115.145 147.74C115.145 148.7 115.371 149.573 115.825 150.36C116.278 151.133 116.885 151.753 117.645 152.22C118.418 152.687 119.285 152.92 120.245 152.92C121.178 152.92 122.018 152.687 122.765 152.22C123.525 151.753 124.125 151.133 124.565 150.36C125.018 149.573 125.245 148.7 125.245 147.74C125.245 146.767 125.018 145.887 124.565 145.1C124.111 144.313 123.505 143.687 122.745 143.22C121.985 142.753 121.131 142.52 120.185 142.52C119.238 142.52 118.385 142.753 117.625 143.22C116.865 143.687 116.258 144.32 115.805 145.12C115.365 145.907 115.145 146.78 115.145 147.74ZM128.375 155L134.815 139.84H134.955L141.395 155H138.715L137.375 151.58H132.075L130.675 155H128.375ZM132.895 149.58H136.595L134.775 145L132.895 149.58ZM143.879 155V140.44H148.019C149.472 140.44 150.706 140.66 151.719 141.1C152.732 141.527 153.552 142.107 154.179 142.84C154.806 143.56 155.259 144.367 155.539 145.26C155.832 146.14 155.979 147.027 155.979 147.92C155.979 149.013 155.786 150 155.399 150.88C155.012 151.747 154.479 152.487 153.799 153.1C153.132 153.713 152.359 154.187 151.479 154.52C150.612 154.84 149.692 155 148.719 155H143.879ZM146.219 152.76H148.299C149.326 152.76 150.232 152.567 151.019 152.18C151.819 151.793 152.446 151.233 152.899 150.5C153.352 149.753 153.579 148.84 153.579 147.76C153.579 146.853 153.426 146.08 153.119 145.44C152.826 144.787 152.432 144.26 151.939 143.86C151.459 143.447 150.932 143.147 150.359 142.96C149.786 142.76 149.219 142.66 148.659 142.66H146.219V152.76Z" fill="white"/>
<defs>
<filter id="filter0_d_135_702" x="0" y="0" width="190" height="196" filterUnits="userSpaceOnUse" color-interpolation-filters="sRGB">
<feFlood flood-opacity="0" result="BackgroundImageFix"/>
<feColorMatrix in="SourceAlpha" type="matrix" values="0 0 0 0 0 0 0 0 0 0 0 0 0 0 0 0 0 0 127 0" result="hardAlpha"/>
<feOffset dy="1"/>
<feGaussianBlur stdDeviation="5"/>
<feColorMatrix type="matrix" values="0 0 0 0 0 0 0 0 0 0 0 0 0 0 0 0 0 0 0.1 0"/>
<feBlend mode="normal" in2="BackgroundImageFix" result="effect1_dropShadow_135_702"/>
<feBlend mode="normal" in="SourceGraphic" in2="effect1_dropShadow_135_702" result="shape"/>
</filter>
<clipPath id="clip0_135_702">
<rect width="35" height="35" fill="white" transform="translate(77 39)"/>
</clipPath>
</defs>
</svg>
