<svg width="190" height="196" viewBox="0 0 190 196" fill="none" xmlns="http://www.w3.org/2000/svg">
<g filter="url(#filter0_d_135_708)">
<rect x="10" y="9" width="170" height="176" rx="10" fill="#5851EA"/>
</g>
<g clip-path="url(#clip0_135_708)">
<path d="M85.9167 52.1252H90.2917V69.6252H85.9167C85.5299 69.6252 85.159 69.4715 84.8855 69.198C84.612 68.9245 84.4583 68.5536 84.4583 68.1668V53.5835C84.4583 53.1967 84.612 52.8258 84.8855 52.5523C85.159 52.2788 85.5299 52.1252 85.9167 52.1252V52.1252ZM93.6356 50.2395L102.969 40.9062C103.093 40.7818 103.258 40.7064 103.433 40.6938C103.608 40.6812 103.782 40.7323 103.923 40.8377L105.167 41.771C105.512 42.0304 105.773 42.3862 105.917 42.7937C106.06 43.2011 106.08 43.642 105.973 44.0606L104.292 50.6668H113.625C114.399 50.6668 115.14 50.9741 115.687 51.5211C116.234 52.0681 116.542 52.8099 116.542 53.5835V56.6518C116.542 57.033 116.468 57.4105 116.323 57.7631L111.809 68.7225C111.699 68.9896 111.512 69.2181 111.272 69.3788C111.032 69.5395 110.749 69.6253 110.46 69.6252H94.6667C94.2799 69.6252 93.909 69.4715 93.6355 69.198C93.362 68.9245 93.2083 68.5536 93.2083 68.1668V51.2706C93.2084 50.8838 93.3621 50.513 93.6356 50.2395Z" fill="white"/>
</g>
<path d="M62.35 111C63.3833 109.95 64.3833 108.933 65.35 107.95C66.3167 106.967 67.1833 106.017 67.95 105.1C68.7167 104.183 69.3167 103.292 69.75 102.425C70.2 101.558 70.425 100.717 70.425 99.9C70.425 98.95 70.1417 98.25 69.575 97.8C69.0083 97.3333 68.3333 97.1 67.55 97.1C66.9167 97.1 66.3917 97.225 65.975 97.475C65.575 97.725 65.275 98.0417 65.075 98.425C64.875 98.7917 64.775 99.1583 64.775 99.525C64.775 100.075 64.8583 100.567 65.025 101C65.2083 101.417 65.45 101.783 65.75 102.1L63.975 103.725C63.5417 103.492 63.175 103.125 62.875 102.625C62.575 102.125 62.3417 101.6 62.175 101.05C62.025 100.5 61.95 100.017 61.95 99.6C61.95 98.7 62.1833 97.85 62.65 97.05C63.1333 96.2333 63.825 95.575 64.725 95.075C65.625 94.5583 66.7333 94.3 68.05 94.3C69.1333 94.3 70.075 94.55 70.875 95.05C71.6917 95.55 72.325 96.2083 72.775 97.025C73.225 97.825 73.45 98.7 73.45 99.65C73.45 100.667 73.2167 101.658 72.75 102.625C72.2833 103.575 71.6833 104.508 70.95 105.425C70.2167 106.342 69.4583 107.267 68.675 108.2H73.85V111H62.35ZM80.7643 105.7C79.9476 105.7 79.1559 105.475 78.3893 105.025C77.6393 104.575 77.0226 103.95 76.5393 103.15C76.0726 102.35 75.8393 101.442 75.8393 100.425C75.8393 99.175 76.1226 98.1083 76.6893 97.225C77.2559 96.3417 77.9893 95.6667 78.8893 95.2C79.7893 94.7167 80.7476 94.475 81.7643 94.475C82.8976 94.475 83.9226 94.7333 84.8393 95.25C85.7726 95.75 86.5059 96.45 87.0393 97.35C87.5893 98.25 87.8643 99.275 87.8643 100.425C87.8643 101.758 87.6226 102.967 87.1393 104.05C86.6559 105.117 86.0143 106.083 85.2143 106.95C84.4143 107.817 83.5309 108.617 82.5643 109.35C81.5976 110.067 80.6309 110.742 79.6643 111.375L77.7143 109.25C79.0643 108.617 80.2393 107.925 81.2393 107.175C82.2559 106.425 83.0476 105.675 83.6143 104.925C83.2476 105.175 82.8309 105.367 82.3643 105.5C81.8976 105.633 81.3643 105.7 80.7643 105.7ZM81.8643 103.25C82.7309 103.25 83.4476 102.992 84.0143 102.475C84.5809 101.942 84.8643 101.292 84.8643 100.525V100.025C84.8643 99.4917 84.7226 99.0083 84.4393 98.575C84.1726 98.125 83.8143 97.7667 83.3643 97.5C82.9309 97.2167 82.4309 97.075 81.8643 97.075C81.0309 97.075 80.3226 97.3583 79.7393 97.925C79.1559 98.475 78.8643 99.2333 78.8643 100.2C78.8643 101.15 79.1559 101.9 79.7393 102.45C80.3226 102.983 81.0309 103.25 81.8643 103.25ZM89.0896 105.725C89.0896 104.892 89.248 104.167 89.5646 103.55C89.8813 102.933 90.273 102.425 90.7396 102.025C91.223 101.608 91.698 101.283 92.1646 101.05C91.7313 100.7 91.3646 100.308 91.0646 99.875C90.7646 99.425 90.6146 98.8333 90.6146 98.1C90.6146 97.3667 90.8146 96.7167 91.2146 96.15C91.6146 95.5667 92.148 95.1167 92.8146 94.8C93.498 94.4667 94.2563 94.3 95.0896 94.3C95.923 94.3 96.6813 94.4667 97.3646 94.8C98.0646 95.1167 98.6146 95.55 99.0146 96.1C99.4146 96.65 99.6146 97.275 99.6146 97.975C99.6146 98.775 99.4563 99.4 99.1396 99.85C98.8396 100.3 98.4646 100.7 98.0146 101.05C98.4813 101.3 98.948 101.633 99.4146 102.05C99.898 102.45 100.298 102.958 100.615 103.575C100.948 104.192 101.115 104.908 101.115 105.725C101.115 106.692 100.848 107.592 100.315 108.425C99.7813 109.258 99.0563 109.933 98.1396 110.45C97.2396 110.95 96.2146 111.2 95.0646 111.2C93.9146 111.2 92.8896 110.95 91.9896 110.45C91.0896 109.933 90.3813 109.258 89.8646 108.425C89.348 107.592 89.0896 106.692 89.0896 105.725ZM93.4396 98.45C93.4396 98.9 93.6146 99.2833 93.9646 99.6C94.3146 99.9167 94.7146 100.075 95.1646 100.075C95.598 100.075 95.9813 99.9167 96.3146 99.6C96.6646 99.2833 96.8396 98.9 96.8396 98.45C96.8396 97.9667 96.6646 97.5583 96.3146 97.225C95.9813 96.8917 95.598 96.725 95.1646 96.725C94.7146 96.725 94.3146 96.8917 93.9646 97.225C93.6146 97.5583 93.4396 97.9667 93.4396 98.45ZM92.0646 105.625C92.0646 106.192 92.198 106.717 92.4646 107.2C92.7313 107.667 93.0896 108.042 93.5396 108.325C94.0063 108.608 94.5146 108.75 95.0646 108.75C95.6313 108.75 96.148 108.608 96.6146 108.325C97.098 108.042 97.4813 107.667 97.7646 107.2C98.0646 106.717 98.2146 106.192 98.2146 105.625C98.2146 105.058 98.073 104.542 97.7896 104.075C97.523 103.608 97.1646 103.233 96.7146 102.95C96.2646 102.667 95.7563 102.517 95.1896 102.5C94.6396 102.483 94.123 102.617 93.6396 102.9C93.173 103.167 92.7896 103.542 92.4896 104.025C92.2063 104.492 92.0646 105.025 92.0646 105.625ZM107.798 111.2C106.865 111.2 105.965 111.033 105.098 110.7C104.248 110.35 103.573 109.925 103.073 109.425L104.598 107.125C104.915 107.508 105.348 107.817 105.898 108.05C106.465 108.283 107.015 108.4 107.548 108.4C108.332 108.4 108.99 108.15 109.523 107.65C110.057 107.15 110.323 106.475 110.323 105.625C110.323 104.708 110.065 103.958 109.548 103.375C109.032 102.792 108.298 102.5 107.348 102.5C106.798 102.5 106.273 102.575 105.773 102.725C105.29 102.875 104.765 103.117 104.198 103.45H104.173V94.5H112.198V97.3H106.673V100.2C107.123 100.1 107.582 100.05 108.048 100.05C109.182 100.05 110.14 100.308 110.923 100.825C111.707 101.325 112.298 101.992 112.698 102.825C113.115 103.642 113.323 104.542 113.323 105.525C113.323 106.592 113.082 107.558 112.598 108.425C112.115 109.275 111.457 109.95 110.623 110.45C109.79 110.95 108.848 111.2 107.798 111.2ZM116.085 111C117.119 109.95 118.119 108.933 119.085 107.95C120.052 106.967 120.919 106.017 121.685 105.1C122.452 104.183 123.052 103.292 123.485 102.425C123.935 101.558 124.16 100.717 124.16 99.9C124.16 98.95 123.877 98.25 123.31 97.8C122.744 97.3333 122.069 97.1 121.285 97.1C120.652 97.1 120.127 97.225 119.71 97.475C119.31 97.725 119.01 98.0417 118.81 98.425C118.61 98.7917 118.51 99.1583 118.51 99.525C118.51 100.075 118.594 100.567 118.76 101C118.944 101.417 119.185 101.783 119.485 102.1L117.71 103.725C117.277 103.492 116.91 103.125 116.61 102.625C116.31 102.125 116.077 101.6 115.91 101.05C115.76 100.5 115.685 100.017 115.685 99.6C115.685 98.7 115.919 97.85 116.385 97.05C116.869 96.2333 117.56 95.575 118.46 95.075C119.36 94.5583 120.469 94.3 121.785 94.3C122.869 94.3 123.81 94.55 124.61 95.05C125.427 95.55 126.06 96.2083 126.51 97.025C126.96 97.825 127.185 98.7 127.185 99.65C127.185 100.667 126.952 101.658 126.485 102.625C126.019 103.575 125.419 104.508 124.685 105.425C123.952 106.342 123.194 107.267 122.41 108.2H127.585V111H116.085Z" fill="white"/>
<path d="M74 140.44H76.34V152.76H83.52V155H74V140.44ZM86.5977 140.44H88.9377V155H86.5977V140.44ZM95.3053 146.02L95.2453 146.76L95.5653 146.3L101.045 140.44H104.045L98.0253 146.8L104.265 155H101.305L96.3253 148.28L95.3053 149.28V155H92.9453V140.44H95.3053V146.02ZM106.734 140.44H116.394V142.68H109.074V146.56H115.594V148.8H109.074V152.76H116.674V155H106.734V140.44Z" fill="white"/>
<defs>
<filter id="filter0_d_135_708" x="0" y="0" width="190" height="196" filterUnits="userSpaceOnUse" color-interpolation-filters="sRGB">
<feFlood flood-opacity="0" result="BackgroundImageFix"/>
<feColorMatrix in="SourceAlpha" type="matrix" values="0 0 0 0 0 0 0 0 0 0 0 0 0 0 0 0 0 0 127 0" result="hardAlpha"/>
<feOffset dy="1"/>
<feGaussianBlur stdDeviation="5"/>
<feColorMatrix type="matrix" values="0 0 0 0 0 0 0 0 0 0 0 0 0 0 0 0 0 0 0.1 0"/>
<feBlend mode="normal" in2="BackgroundImageFix" result="effect1_dropShadow_135_708"/>
<feBlend mode="normal" in="SourceGraphic" in2="effect1_dropShadow_135_708" result="shape"/>
</filter>
<clipPath id="clip0_135_708">
<rect width="35" height="35" fill="white" transform="translate(83 39)"/>
</clipPath>
</defs>
</svg>
